<?xml version="1.0" standalone="no"?>
<!DOCTYPE svg PUBLIC "-//W3C//DTD SVG 20010904//EN"
 "http://www.w3.org/TR/2001/REC-SVG-20010904/DTD/svg10.dtd">
<svg version="1.0" xmlns="http://www.w3.org/2000/svg"
 width="1600.000000pt" height="1600.000000pt" viewBox="0 0 1600.000000 1600.000000"
 preserveAspectRatio="xMidYMid meet">
<metadata>
Created by potrace 1.14, written by Peter Selinger 2001-2017
</metadata>
<g transform="translate(0.000000,1600.000000) scale(0.100000,-0.100000)"
fill="#000000" stroke="none">
<path d="M2925 10427 c-329 -335 -512 -548 -802 -933 -473 -629 -784 -1165
-981 -1689 -152 -408 -205 -735 -171 -1066 61 -608 404 -1044 979 -1247 213
-75 385 -102 688 -109 341 -8 573 17 972 103 358 78 903 257 1277 420 70 31
155 67 188 81 33 14 86 38 118 54 32 17 104 50 160 74 116 50 263 115 697 307
168 75 440 195 605 268 165 73 363 161 440 195 77 34 178 79 225 100 47 20
128 56 180 80 52 23 250 111 440 195 190 83 383 169 430 190 204 91 818 364
1405 623 258 114 722 319 1315 582 294 130 612 271 705 312 94 41 208 92 255
113 47 21 243 108 435 193 550 243 1618 716 2420 1072 165 73 319 141 343 150
63 25 46 28 -34 5 -82 -24 -705 -196 -784 -217 -30 -8 -143 -38 -250 -68 -183
-51 -765 -210 -875 -240 -156 -42 -345 -93 -625 -170 -173 -48 -371 -102 -440
-120 -69 -19 -242 -66 -385 -105 -276 -76 -288 -79 -490 -134 -168 -45 -1084
-296 -1375 -377 -124 -34 -263 -72 -310 -85 -47 -12 -233 -64 -415 -114 -181
-50 -798 -219 -1370 -375 -572 -156 -1222 -334 -1445 -395 -223 -61 -439 -120
-480 -131 -41 -11 -273 -74 -515 -139 -711 -192 -933 -239 -1248 -262 -338
-25 -707 34 -967 155 -358 166 -591 448 -672 815 -19 83 -22 129 -22 322 -1
195 2 241 22 345 76 396 210 772 448 1253 27 56 48 102 45 102 -3 -1 -64 -60
-136 -133z"/>
</g>
</svg>
